<svg id="Layer_1" data-name="Layer 1" xmlns="http://www.w3.org/2000/svg" viewBox="0 0 912 366.08"><title>kindly</title><path d="M27,123.74H72.64V273.58l53.25-54h54l-70,70.74,81.39,92H130.83L72.64,313.14v69.22H27V123.74Z" transform="translate(-27 -107.17)" style="fill:#39bced"/><path d="M203.47,163.29a25.65,25.65,0,0,1,8.18-19,28.95,28.95,0,0,1,39.93,0,25.67,25.67,0,0,1,8.18,19,25.06,25.06,0,0,1-8.18,18.83,29.22,29.22,0,0,1-39.74,0A24.79,24.79,0,0,1,203.47,163.29Zm4.95,56.29h46.4V382.36h-46.4V219.58Z" transform="translate(-27 -107.17)" style="fill:#39bced"/><path d="M292.84,219.58h45.64v14.07Q365.09,215,390.2,215q54.38,0,54.39,57.43V382.36h-46.4V278.53q0-28.53-23.58-28.53-17.5,0-36.13,13.69V382.36H292.84V219.58Z" transform="translate(-27 -107.17)" style="fill:#39bced"/><path d="M588,368.29q-26.62,18.64-47.54,18.63-67.31,0-67.32-86,0-41.45,17.5-63.7T540,215A87.93,87.93,0,0,1,588,228.71v-105H633.6V382.36H588V368.29Zm0-109.16q-18.64-9.5-36.13-9.51-14.83,0-23.39,13.31t-8.56,36.13q0,52.11,29.67,52.1,16.73,0,38.41-13.69V259.13Z" transform="translate(-27 -107.17)" style="fill:#39bced"/><path d="M670.49,123.74h46.4v208q0,23.2,16.73,23.2,10.27,0,24.72-4.56l7.61,23.2q-23.59,13.31-44.5,13.31-51,0-51-56.29V123.74Z" transform="translate(-27 -107.17)" style="fill:#39bced"/><path d="M802.84,430.28a126.25,126.25,0,0,0,47.54,9.51q42.59,0,42.6-47.16v-25.1q-27.38,19.4-49.44,19.4-56.29,0-56.29-55.53V219.58h45.64V323q0,16.35,5.14,22.63t17.31,6.27q17.11,0,37.65-14.83V219.58h46V385q0,88.23-84.43,88.24-27,0-60.85-15.21Z" transform="translate(-27 -107.17)" style="fill:#39bced"/><path d="M275.72,113.41c-9-7.06-21.94-8.12-32.2-3.19A30.46,30.46,0,0,0,232,120a30.46,30.46,0,0,0-11.52-9.8c-10.26-4.94-23.18-3.87-32.2,3.19a30.18,30.18,0,0,0-10.74,30.25c2.78,11.83,12.25,20.78,21.55,27.89,11.83,9,32.91,31.54,32.91,31.54s21.08-22.5,32.91-31.54c9.3-7.1,18.77-16.06,21.55-27.89A30.18,30.18,0,0,0,275.72,113.41Z" transform="translate(-27 -107.17)" style="fill:#e5018c"/></svg>