<?xml version="1.0" encoding="utf-8"?>
<!-- Generator: Adobe Illustrator 19.2.0, SVG Export Plug-In . SVG Version: 6.00 Build 0)  -->
<svg version="1.1" id="Layer_1" xmlns="http://www.w3.org/2000/svg" xmlns:xlink="http://www.w3.org/1999/xlink" x="0px" y="0px"
	 viewBox="0 0 50 50" style="enable-background:new 0 0 50 50;" xml:space="preserve">
<style type="text/css">
	.st0{fill:#E5018C;}
	.st1{fill:#FFFFFF;}
</style>
<path class="st0" d="M44.5,7.5c-4-3.1-9.8-3.6-14.4-1.4c-2.1,1-3.8,2.5-5.1,4.4c-1.3-1.8-3-3.4-5.1-4.4C15.3,3.9,9.5,4.4,5.5,7.5
	c-4,3.1-6,8.5-4.8,13.5c1.2,5.3,5.5,9.3,9.6,12.4c5.3,4,14.7,14.1,14.7,14.1s9.4-10,14.7-14.1c4.1-3.2,8.4-7.2,9.6-12.4
	C50.4,16,48.5,10.7,44.5,7.5z"/>
<g>
	<path class="st1" d="M16.4,23h6.3v-6.3h4.5V23h6.3v4.2h-6.3v6.3h-4.5v-6.3h-6.3V23z"/>
</g>
</svg>
